<?xml version="1.0" encoding="UTF-8" standalone="no"?>
<!DOCTYPE svg PUBLIC "-//W3C//DTD SVG 1.1//EN"
 "http://www.w3.org/Graphics/SVG/1.1/DTD/svg11.dtd">
<!-- Generated by graphviz version 2.40.1 (20161225.0304)
 -->
<!-- Title: compactRelationshipsDiagram Pages: 1 -->
<svg width="731pt" height="670pt"
 viewBox="0.00 0.00 731.00 670.20" xmlns="http://www.w3.org/2000/svg" xmlns:xlink="http://www.w3.org/1999/xlink">
<g id="graph0" class="graph" transform="scale(1 1) rotate(0) translate(4 666.2)">
<title>compactRelationshipsDiagram</title>
<polygon fill="#ffffff" stroke="transparent" points="-4,4 -4,-666.2 727,-666.2 727,4 -4,4"/>
<text text-anchor="middle" x="72.4936" y="-7.3" font-family="Helvetica,sans-Serif" font-size="11.00" fill="#000000">Generated by SchemaSpy</text>
<!-- ContributionTable -->
<g id="node1" class="node">
<title>ContributionTable</title>
<g id="a_node1"><a xlink:href="../../tables/ContributionTable.html" xlink:title="ContributionTable" target="_top">
<polygon fill="#ffffff" stroke="transparent" points="210.5,-394.2 210.5,-499.2 414.5,-499.2 414.5,-394.2 210.5,-394.2"/>
<polygon fill="#f5f5f5" stroke="transparent" points="210.5,-475.7 210.5,-498.7 414.5,-498.7 414.5,-475.7 210.5,-475.7"/>
<polygon fill="none" stroke="#000000" points="210.5,-475.7 210.5,-498.7 414.5,-498.7 414.5,-475.7 210.5,-475.7"/>
<text text-anchor="start" x="215.5" y="-484.8" font-family="Helvetica,sans-Serif" font-weight="bold" font-size="11.00" fill="#000000">ContributionTable</text>
<text text-anchor="start" x="379.5437" y="-483.8" font-family="Helvetica,sans-Serif" font-size="11.00" fill="#000000">[table]</text>
<polygon fill="none" stroke="#000000" points="210.5,-453.7 210.5,-475.7 414.5,-475.7 414.5,-453.7 210.5,-453.7"/>
<image xlink:href="../../images/primaryKeys.png" width="11px" height="12px" preserveAspectRatio="xMinYMin meet" x="215.5" y="-470.7"/>
<text text-anchor="start" x="230.5" y="-460.8" font-family="Helvetica,sans-Serif" font-size="11.00" fill="#000000">cldf_id</text>
<polygon fill="none" stroke="#000000" points="210.5,-431.7 210.5,-453.7 414.5,-453.7 414.5,-431.7 210.5,-431.7"/>
<image xlink:href="../../images/foreignKeys.png" width="11px" height="12px" preserveAspectRatio="xMinYMin meet" x="215.5" y="-448.7"/>
<text text-anchor="start" x="230.5" y="-438.8" font-family="Helvetica,sans-Serif" font-size="11.00" fill="#000000">cldf_languageReference</text>
<polygon fill="none" stroke="#000000" points="210.5,-412.7 210.5,-431.7 414.5,-431.7 414.5,-412.7 210.5,-412.7"/>
<text text-anchor="start" x="213.5" y="-418.8" font-family="Helvetica,sans-Serif" font-size="11.00" fill="#000000">...</text>
<polygon fill="#ffffff" stroke="transparent" points="210.5,-393.7 210.5,-412.7 282.5,-412.7 282.5,-393.7 210.5,-393.7"/>
<polygon fill="none" stroke="#000000" points="210.5,-393.7 210.5,-412.7 282.5,-412.7 282.5,-393.7 210.5,-393.7"/>
<text text-anchor="start" x="213.5" y="-399.8" font-family="Helvetica,sans-Serif" font-size="11.00" fill="#000000">&lt; 1</text>
<polygon fill="#ffffff" stroke="transparent" points="282.5,-393.7 282.5,-412.7 367.5,-412.7 367.5,-393.7 282.5,-393.7"/>
<polygon fill="none" stroke="#000000" points="282.5,-393.7 282.5,-412.7 367.5,-412.7 367.5,-393.7 282.5,-393.7"/>
<text text-anchor="start" x="310.7089" y="-399.8" font-family="Helvetica,sans-Serif" font-size="11.00" fill="#000000">2,229 rows</text>
<polygon fill="#ffffff" stroke="transparent" points="367.5,-393.7 367.5,-412.7 414.5,-412.7 414.5,-393.7 367.5,-393.7"/>
<polygon fill="none" stroke="#000000" points="367.5,-393.7 367.5,-412.7 414.5,-412.7 414.5,-393.7 367.5,-393.7"/>
<text text-anchor="start" x="395.9053" y="-399.8" font-family="Helvetica,sans-Serif" font-size="11.00" fill="#000000">3 &gt;</text>
</a>
</g>
</g>
<!-- LanguageTable -->
<g id="node9" class="node">
<title>LanguageTable</title>
<g id="a_node9"><a xlink:href="../../tables/LanguageTable.html" xlink:title="LanguageTable" target="_top">
<polygon fill="#ffffff" stroke="transparent" points="8,-457.2 8,-540.2 153,-540.2 153,-457.2 8,-457.2"/>
<polygon fill="#f5f5f5" stroke="transparent" points="8.5,-516.7 8.5,-539.7 153.5,-539.7 153.5,-516.7 8.5,-516.7"/>
<polygon fill="none" stroke="#000000" points="8.5,-516.7 8.5,-539.7 153.5,-539.7 153.5,-516.7 8.5,-516.7"/>
<text text-anchor="start" x="13.5" y="-525.8" font-family="Helvetica,sans-Serif" font-weight="bold" font-size="11.00" fill="#000000">LanguageTable</text>
<text text-anchor="start" x="118.5437" y="-524.8" font-family="Helvetica,sans-Serif" font-size="11.00" fill="#000000">[table]</text>
<polygon fill="none" stroke="#000000" points="8.5,-494.7 8.5,-516.7 153.5,-516.7 153.5,-494.7 8.5,-494.7"/>
<image xlink:href="../../images/primaryKeys.png" width="11px" height="12px" preserveAspectRatio="xMinYMin meet" x="13.5" y="-511.7"/>
<text text-anchor="start" x="28.5" y="-501.8" font-family="Helvetica,sans-Serif" font-size="11.00" fill="#000000">cldf_id</text>
<polygon fill="none" stroke="#000000" points="8.5,-475.7 8.5,-494.7 153.5,-494.7 153.5,-475.7 8.5,-475.7"/>
<text text-anchor="start" x="11.5" y="-481.8" font-family="Helvetica,sans-Serif" font-size="11.00" fill="#000000">...</text>
<polygon fill="#ffffff" stroke="transparent" points="8.5,-456.7 8.5,-475.7 51.5,-475.7 51.5,-456.7 8.5,-456.7"/>
<polygon fill="none" stroke="#000000" points="8.5,-456.7 8.5,-475.7 51.5,-475.7 51.5,-456.7 8.5,-456.7"/>
<text text-anchor="start" x="11.5" y="-462.8" font-family="Helvetica,sans-Serif" font-size="11.00" fill="#000000"> &#160;</text>
<polygon fill="#ffffff" stroke="transparent" points="51.5,-456.7 51.5,-475.7 116.5,-475.7 116.5,-456.7 51.5,-456.7"/>
<polygon fill="none" stroke="#000000" points="51.5,-456.7 51.5,-475.7 116.5,-475.7 116.5,-456.7 51.5,-456.7"/>
<text text-anchor="start" x="68.8807" y="-462.8" font-family="Helvetica,sans-Serif" font-size="11.00" fill="#000000">312 rows</text>
<polygon fill="#ffffff" stroke="transparent" points="116.5,-456.7 116.5,-475.7 153.5,-475.7 153.5,-456.7 116.5,-456.7"/>
<polygon fill="none" stroke="#000000" points="116.5,-456.7 116.5,-475.7 153.5,-475.7 153.5,-456.7 116.5,-456.7"/>
<text text-anchor="start" x="134.9053" y="-462.8" font-family="Helvetica,sans-Serif" font-size="11.00" fill="#000000">4 &gt;</text>
</a>
</g>
</g>
<!-- ContributionTable&#45;&gt;LanguageTable -->
<g id="edge1" class="edge">
<title>ContributionTable:w&#45;&gt;LanguageTable:e</title>
<path fill="none" stroke="#000000" d="M196.4928,-446.8336C177.1537,-460.8494 185.3596,-505.7 153.5,-505.7"/>
<polygon fill="#000000" stroke="#000000" points="202.8271,-444.9644 211.519,-446.1528 206.6636,-443.8322 210.5,-442.7 210.5,-442.7 210.5,-442.7 206.6636,-443.8322 209.481,-439.2472 202.8271,-444.9644 202.8271,-444.9644"/>
<ellipse fill="none" stroke="#000000" cx="199.758" cy="-445.8701" rx="3.2" ry="3.2"/>
</g>
<!-- ContributionTable_ExampleTable -->
<g id="node2" class="node">
<title>ContributionTable_ExampleTable</title>
<g id="a_node2"><a xlink:href="../../tables/ContributionTable_ExampleTable.html" xlink:title="ContributionTable_ExampleTable" target="_top">
<polygon fill="#ffffff" stroke="transparent" points="472,-553.2 472,-658.2 715,-658.2 715,-553.2 472,-553.2"/>
<polygon fill="#f5f5f5" stroke="transparent" points="472.5,-634.7 472.5,-657.7 715.5,-657.7 715.5,-634.7 472.5,-634.7"/>
<polygon fill="none" stroke="#000000" points="472.5,-634.7 472.5,-657.7 715.5,-657.7 715.5,-634.7 472.5,-634.7"/>
<text text-anchor="start" x="477.5" y="-643.8" font-family="Helvetica,sans-Serif" font-weight="bold" font-size="11.00" fill="#000000">ContributionTable_ExampleTable</text>
<text text-anchor="start" x="680.5437" y="-642.8" font-family="Helvetica,sans-Serif" font-size="11.00" fill="#000000">[table]</text>
<polygon fill="none" stroke="#000000" points="472.5,-612.7 472.5,-634.7 715.5,-634.7 715.5,-612.7 472.5,-612.7"/>
<image xlink:href="../../images/foreignKeys.png" width="11px" height="12px" preserveAspectRatio="xMinYMin meet" x="477.5" y="-629.7"/>
<text text-anchor="start" x="492.5" y="-619.8" font-family="Helvetica,sans-Serif" font-size="11.00" fill="#000000">ContributionTable_cldf_id</text>
<polygon fill="none" stroke="#000000" points="472.5,-590.7 472.5,-612.7 715.5,-612.7 715.5,-590.7 472.5,-590.7"/>
<image xlink:href="../../images/foreignKeys.png" width="11px" height="12px" preserveAspectRatio="xMinYMin meet" x="477.5" y="-607.7"/>
<text text-anchor="start" x="492.5" y="-597.8" font-family="Helvetica,sans-Serif" font-size="11.00" fill="#000000">ExampleTable_cldf_id</text>
<polygon fill="none" stroke="#000000" points="472.5,-571.7 472.5,-590.7 715.5,-590.7 715.5,-571.7 472.5,-571.7"/>
<text text-anchor="start" x="475.5" y="-577.8" font-family="Helvetica,sans-Serif" font-size="11.00" fill="#000000">...</text>
<polygon fill="#ffffff" stroke="transparent" points="472.5,-552.7 472.5,-571.7 568.5,-571.7 568.5,-552.7 472.5,-552.7"/>
<polygon fill="none" stroke="#000000" points="472.5,-552.7 472.5,-571.7 568.5,-571.7 568.5,-552.7 472.5,-552.7"/>
<text text-anchor="start" x="475.5" y="-558.8" font-family="Helvetica,sans-Serif" font-size="11.00" fill="#000000">&lt; 2</text>
<polygon fill="#ffffff" stroke="transparent" points="568.5,-552.7 568.5,-571.7 665.5,-571.7 665.5,-552.7 568.5,-552.7"/>
<polygon fill="none" stroke="#000000" points="568.5,-552.7 568.5,-571.7 665.5,-571.7 665.5,-552.7 568.5,-552.7"/>
<text text-anchor="start" x="608.7089" y="-558.8" font-family="Helvetica,sans-Serif" font-size="11.00" fill="#000000">3,601 rows</text>
<polygon fill="#ffffff" stroke="transparent" points="665.5,-552.7 665.5,-571.7 715.5,-571.7 715.5,-552.7 665.5,-552.7"/>
<polygon fill="none" stroke="#000000" points="665.5,-552.7 665.5,-571.7 715.5,-571.7 715.5,-552.7 665.5,-552.7"/>
<text text-anchor="start" x="706.3862" y="-558.8" font-family="Helvetica,sans-Serif" font-size="11.00" fill="#000000"> &#160;</text>
</a>
</g>
</g>
<!-- ContributionTable_ExampleTable&#45;&gt;ContributionTable -->
<g id="edge2" class="edge">
<title>ContributionTable_ExampleTable:w&#45;&gt;ContributionTable:e</title>
<path fill="none" stroke="#000000" d="M458.081,-621.0729C410.3888,-600.3999 483.9917,-464.7 414.5,-464.7"/>
<polygon fill="#000000" stroke="#000000" points="464.6296,-622.266 471.8547,-627.2417 468.5648,-622.983 472.5,-623.7 472.5,-623.7 472.5,-623.7 468.5648,-622.983 473.1453,-620.1583 464.6296,-622.266 464.6296,-622.266"/>
<ellipse fill="none" stroke="#000000" cx="461.4814" cy="-621.6924" rx="3.2" ry="3.2"/>
</g>
<!-- ExampleTable -->
<g id="node5" class="node">
<title>ExampleTable</title>
<g id="a_node5"><a xlink:href="../../tables/ExampleTable.html" xlink:title="ExampleTable" target="_top">
<polygon fill="#ffffff" stroke="transparent" points="202,-520.2 202,-647.2 423,-647.2 423,-520.2 202,-520.2"/>
<polygon fill="#f5f5f5" stroke="transparent" points="202.5,-623.7 202.5,-646.7 423.5,-646.7 423.5,-623.7 202.5,-623.7"/>
<polygon fill="none" stroke="#000000" points="202.5,-623.7 202.5,-646.7 423.5,-646.7 423.5,-623.7 202.5,-623.7"/>
<text text-anchor="start" x="207.5" y="-632.8" font-family="Helvetica,sans-Serif" font-weight="bold" font-size="11.00" fill="#000000">ExampleTable</text>
<text text-anchor="start" x="388.5437" y="-631.8" font-family="Helvetica,sans-Serif" font-size="11.00" fill="#000000">[table]</text>
<polygon fill="none" stroke="#000000" points="202.5,-601.7 202.5,-623.7 423.5,-623.7 423.5,-601.7 202.5,-601.7"/>
<image xlink:href="../../images/primaryKeys.png" width="11px" height="12px" preserveAspectRatio="xMinYMin meet" x="207.5" y="-618.7"/>
<text text-anchor="start" x="222.5" y="-608.8" font-family="Helvetica,sans-Serif" font-size="11.00" fill="#000000">cldf_id</text>
<polygon fill="none" stroke="#000000" points="202.5,-579.7 202.5,-601.7 423.5,-601.7 423.5,-579.7 202.5,-579.7"/>
<image xlink:href="../../images/foreignKeys.png" width="11px" height="12px" preserveAspectRatio="xMinYMin meet" x="207.5" y="-596.7"/>
<text text-anchor="start" x="222.5" y="-586.8" font-family="Helvetica,sans-Serif" font-size="11.00" fill="#000000">cldf_languageReference</text>
<polygon fill="none" stroke="#000000" points="202.5,-557.7 202.5,-579.7 423.5,-579.7 423.5,-557.7 202.5,-557.7"/>
<image xlink:href="../../images/foreignKeys.png" width="11px" height="12px" preserveAspectRatio="xMinYMin meet" x="207.5" y="-574.7"/>
<text text-anchor="start" x="222.5" y="-564.8" font-family="Helvetica,sans-Serif" font-size="11.00" fill="#000000">cldf_metaLanguageReference</text>
<polygon fill="none" stroke="#000000" points="202.5,-538.7 202.5,-557.7 423.5,-557.7 423.5,-538.7 202.5,-538.7"/>
<text text-anchor="start" x="205.5" y="-544.8" font-family="Helvetica,sans-Serif" font-size="11.00" fill="#000000">...</text>
<polygon fill="#ffffff" stroke="transparent" points="202.5,-519.7 202.5,-538.7 283.5,-538.7 283.5,-519.7 202.5,-519.7"/>
<polygon fill="none" stroke="#000000" points="202.5,-519.7 202.5,-538.7 283.5,-538.7 283.5,-519.7 202.5,-519.7"/>
<text text-anchor="start" x="205.5" y="-525.8" font-family="Helvetica,sans-Serif" font-size="11.00" fill="#000000">&lt; 2</text>
<polygon fill="#ffffff" stroke="transparent" points="283.5,-519.7 283.5,-538.7 372.5,-538.7 372.5,-519.7 283.5,-519.7"/>
<polygon fill="none" stroke="#000000" points="283.5,-519.7 283.5,-538.7 372.5,-538.7 372.5,-519.7 283.5,-519.7"/>
<text text-anchor="start" x="315.7089" y="-525.8" font-family="Helvetica,sans-Serif" font-size="11.00" fill="#000000">3,514 rows</text>
<polygon fill="#ffffff" stroke="transparent" points="372.5,-519.7 372.5,-538.7 423.5,-538.7 423.5,-519.7 372.5,-519.7"/>
<polygon fill="none" stroke="#000000" points="372.5,-519.7 372.5,-538.7 423.5,-538.7 423.5,-519.7 372.5,-519.7"/>
<text text-anchor="start" x="404.9053" y="-525.8" font-family="Helvetica,sans-Serif" font-size="11.00" fill="#000000">1 &gt;</text>
</a>
</g>
</g>
<!-- ContributionTable_ExampleTable&#45;&gt;ExampleTable -->
<g id="edge3" class="edge">
<title>ContributionTable_ExampleTable:w&#45;&gt;ExampleTable:e</title>
<path fill="none" stroke="#000000" d="M458.2027,-603.5164C446.7382,-606.6407 440.0655,-612.7 423.5,-612.7"/>
<polygon fill="#000000" stroke="#000000" points="464.5638,-602.7083 472.9537,-605.2713 468.5319,-602.2042 472.5,-601.7 472.5,-601.7 472.5,-601.7 468.5319,-602.2042 472.0463,-598.1287 464.5638,-602.7083 464.5638,-602.7083"/>
<ellipse fill="none" stroke="#000000" cx="461.3893" cy="-603.1116" rx="3.2" ry="3.2"/>
</g>
<!-- ContributionTable_FormTable -->
<g id="node3" class="node">
<title>ContributionTable_FormTable</title>
<g id="a_node3"><a xlink:href="../../tables/ContributionTable_FormTable.html" xlink:title="ContributionTable_FormTable" target="_top">
<polygon fill="#ffffff" stroke="transparent" points="483,-290.2 483,-395.2 704,-395.2 704,-290.2 483,-290.2"/>
<polygon fill="#f5f5f5" stroke="transparent" points="483.5,-371.7 483.5,-394.7 704.5,-394.7 704.5,-371.7 483.5,-371.7"/>
<polygon fill="none" stroke="#000000" points="483.5,-371.7 483.5,-394.7 704.5,-394.7 704.5,-371.7 483.5,-371.7"/>
<text text-anchor="start" x="488.5" y="-380.8" font-family="Helvetica,sans-Serif" font-weight="bold" font-size="11.00" fill="#000000">ContributionTable_FormTable</text>
<text text-anchor="start" x="669.5437" y="-379.8" font-family="Helvetica,sans-Serif" font-size="11.00" fill="#000000">[table]</text>
<polygon fill="none" stroke="#000000" points="483.5,-349.7 483.5,-371.7 704.5,-371.7 704.5,-349.7 483.5,-349.7"/>
<image xlink:href="../../images/foreignKeys.png" width="11px" height="12px" preserveAspectRatio="xMinYMin meet" x="488.5" y="-366.7"/>
<text text-anchor="start" x="503.5" y="-356.8" font-family="Helvetica,sans-Serif" font-size="11.00" fill="#000000">ContributionTable_cldf_id</text>
<polygon fill="none" stroke="#000000" points="483.5,-327.7 483.5,-349.7 704.5,-349.7 704.5,-327.7 483.5,-327.7"/>
<image xlink:href="../../images/foreignKeys.png" width="11px" height="12px" preserveAspectRatio="xMinYMin meet" x="488.5" y="-344.7"/>
<text text-anchor="start" x="503.5" y="-334.8" font-family="Helvetica,sans-Serif" font-size="11.00" fill="#000000">FormTable_cldf_id</text>
<polygon fill="none" stroke="#000000" points="483.5,-308.7 483.5,-327.7 704.5,-327.7 704.5,-308.7 483.5,-308.7"/>
<text text-anchor="start" x="486.5" y="-314.8" font-family="Helvetica,sans-Serif" font-size="11.00" fill="#000000">...</text>
<polygon fill="#ffffff" stroke="transparent" points="483.5,-289.7 483.5,-308.7 565.5,-308.7 565.5,-289.7 483.5,-289.7"/>
<polygon fill="none" stroke="#000000" points="483.5,-289.7 483.5,-308.7 565.5,-308.7 565.5,-289.7 483.5,-289.7"/>
<text text-anchor="start" x="486.5" y="-295.8" font-family="Helvetica,sans-Serif" font-size="11.00" fill="#000000">&lt; 2</text>
<polygon fill="#ffffff" stroke="transparent" points="565.5,-289.7 565.5,-308.7 661.5,-308.7 661.5,-289.7 565.5,-289.7"/>
<polygon fill="none" stroke="#000000" points="565.5,-289.7 565.5,-308.7 661.5,-308.7 661.5,-289.7 565.5,-289.7"/>
<text text-anchor="start" x="598.594" y="-295.8" font-family="Helvetica,sans-Serif" font-size="11.00" fill="#000000">85,633 rows</text>
<polygon fill="#ffffff" stroke="transparent" points="661.5,-289.7 661.5,-308.7 704.5,-308.7 704.5,-289.7 661.5,-289.7"/>
<polygon fill="none" stroke="#000000" points="661.5,-289.7 661.5,-308.7 704.5,-308.7 704.5,-289.7 661.5,-289.7"/>
<text text-anchor="start" x="695.3862" y="-295.8" font-family="Helvetica,sans-Serif" font-size="11.00" fill="#000000"> &#160;</text>
</a>
</g>
</g>
<!-- ContributionTable_FormTable&#45;&gt;ContributionTable -->
<g id="edge4" class="edge">
<title>ContributionTable_FormTable:w&#45;&gt;ContributionTable:e</title>
<path fill="none" stroke="#000000" d="M469.4092,-363.7004C435.5442,-380.7522 464.3365,-464.7 414.5,-464.7"/>
<polygon fill="#000000" stroke="#000000" points="475.6754,-362.3661 484.2498,-364.2211 479.5877,-361.5331 483.5,-360.7 483.5,-360.7 483.5,-360.7 479.5877,-361.5331 482.7502,-357.1789 475.6754,-362.3661 475.6754,-362.3661"/>
<ellipse fill="none" stroke="#000000" cx="472.5456" cy="-363.0326" rx="3.2" ry="3.2"/>
</g>
<!-- FormTable -->
<g id="node6" class="node">
<title>FormTable</title>
<g id="a_node6"><a xlink:href="../../tables/FormTable.html" xlink:title="FormTable" target="_top">
<polygon fill="#ffffff" stroke="transparent" points="217,-142.2 217,-269.2 408,-269.2 408,-142.2 217,-142.2"/>
<polygon fill="#f5f5f5" stroke="transparent" points="217.5,-245.7 217.5,-268.7 408.5,-268.7 408.5,-245.7 217.5,-245.7"/>
<polygon fill="none" stroke="#000000" points="217.5,-245.7 217.5,-268.7 408.5,-268.7 408.5,-245.7 217.5,-245.7"/>
<text text-anchor="start" x="222.5" y="-254.8" font-family="Helvetica,sans-Serif" font-weight="bold" font-size="11.00" fill="#000000">FormTable</text>
<text text-anchor="start" x="373.5437" y="-253.8" font-family="Helvetica,sans-Serif" font-size="11.00" fill="#000000">[table]</text>
<polygon fill="none" stroke="#000000" points="217.5,-223.7 217.5,-245.7 408.5,-245.7 408.5,-223.7 217.5,-223.7"/>
<image xlink:href="../../images/primaryKeys.png" width="11px" height="12px" preserveAspectRatio="xMinYMin meet" x="222.5" y="-240.7"/>
<text text-anchor="start" x="237.5" y="-230.8" font-family="Helvetica,sans-Serif" font-size="11.00" fill="#000000">cldf_id</text>
<polygon fill="none" stroke="#000000" points="217.5,-201.7 217.5,-223.7 408.5,-223.7 408.5,-201.7 217.5,-201.7"/>
<image xlink:href="../../images/foreignKeys.png" width="11px" height="12px" preserveAspectRatio="xMinYMin meet" x="222.5" y="-218.7"/>
<text text-anchor="start" x="237.5" y="-208.8" font-family="Helvetica,sans-Serif" font-size="11.00" fill="#000000">cldf_languageReference</text>
<polygon fill="none" stroke="#000000" points="217.5,-179.7 217.5,-201.7 408.5,-201.7 408.5,-179.7 217.5,-179.7"/>
<image xlink:href="../../images/foreignKeys.png" width="11px" height="12px" preserveAspectRatio="xMinYMin meet" x="222.5" y="-196.7"/>
<text text-anchor="start" x="237.5" y="-186.8" font-family="Helvetica,sans-Serif" font-size="11.00" fill="#000000">cldf_parameterReference</text>
<polygon fill="none" stroke="#000000" points="217.5,-160.7 217.5,-179.7 408.5,-179.7 408.5,-160.7 217.5,-160.7"/>
<text text-anchor="start" x="220.5" y="-166.8" font-family="Helvetica,sans-Serif" font-size="11.00" fill="#000000">...</text>
<polygon fill="#ffffff" stroke="transparent" points="217.5,-141.7 217.5,-160.7 280.5,-160.7 280.5,-141.7 217.5,-141.7"/>
<polygon fill="none" stroke="#000000" points="217.5,-141.7 217.5,-160.7 280.5,-160.7 280.5,-141.7 217.5,-141.7"/>
<text text-anchor="start" x="220.5" y="-147.8" font-family="Helvetica,sans-Serif" font-size="11.00" fill="#000000">&lt; 2</text>
<polygon fill="#ffffff" stroke="transparent" points="280.5,-141.7 280.5,-160.7 366.5,-160.7 366.5,-141.7 280.5,-141.7"/>
<polygon fill="none" stroke="#000000" points="280.5,-141.7 280.5,-160.7 366.5,-160.7 366.5,-141.7 280.5,-141.7"/>
<text text-anchor="start" x="303.594" y="-147.8" font-family="Helvetica,sans-Serif" font-size="11.00" fill="#000000">63,161 rows</text>
<polygon fill="#ffffff" stroke="transparent" points="366.5,-141.7 366.5,-160.7 408.5,-160.7 408.5,-141.7 366.5,-141.7"/>
<polygon fill="none" stroke="#000000" points="366.5,-141.7 366.5,-160.7 408.5,-160.7 408.5,-141.7 366.5,-141.7"/>
<text text-anchor="start" x="389.9053" y="-147.8" font-family="Helvetica,sans-Serif" font-size="11.00" fill="#000000">3 &gt;</text>
</a>
</g>
</g>
<!-- ContributionTable_FormTable&#45;&gt;FormTable -->
<g id="edge5" class="edge">
<title>ContributionTable_FormTable:w&#45;&gt;FormTable:e</title>
<path fill="none" stroke="#000000" d="M469.3712,-335.9183C433.2095,-319.3793 459.9226,-234.7 408.5,-234.7"/>
<polygon fill="#000000" stroke="#000000" points="475.6507,-337.1545 482.8045,-342.2322 479.5753,-337.9273 483.5,-338.7 483.5,-338.7 483.5,-338.7 479.5753,-337.9273 484.1955,-335.1678 475.6507,-337.1545 475.6507,-337.1545"/>
<ellipse fill="none" stroke="#000000" cx="472.511" cy="-336.5364" rx="3.2" ry="3.2"/>
</g>
<!-- ContributionTable_MediaTable -->
<g id="node4" class="node">
<title>ContributionTable_MediaTable</title>
<g id="a_node4"><a xlink:href="../../tables/ContributionTable_MediaTable.html" xlink:title="ContributionTable_MediaTable" target="_top">
<polygon fill="#ffffff" stroke="transparent" points="480,-416.2 480,-521.2 707,-521.2 707,-416.2 480,-416.2"/>
<polygon fill="#f5f5f5" stroke="transparent" points="480.5,-497.7 480.5,-520.7 707.5,-520.7 707.5,-497.7 480.5,-497.7"/>
<polygon fill="none" stroke="#000000" points="480.5,-497.7 480.5,-520.7 707.5,-520.7 707.5,-497.7 480.5,-497.7"/>
<text text-anchor="start" x="485.5" y="-506.8" font-family="Helvetica,sans-Serif" font-weight="bold" font-size="11.00" fill="#000000">ContributionTable_MediaTable</text>
<text text-anchor="start" x="672.5437" y="-505.8" font-family="Helvetica,sans-Serif" font-size="11.00" fill="#000000">[table]</text>
<polygon fill="none" stroke="#000000" points="480.5,-475.7 480.5,-497.7 707.5,-497.7 707.5,-475.7 480.5,-475.7"/>
<image xlink:href="../../images/foreignKeys.png" width="11px" height="12px" preserveAspectRatio="xMinYMin meet" x="485.5" y="-492.7"/>
<text text-anchor="start" x="500.5" y="-482.8" font-family="Helvetica,sans-Serif" font-size="11.00" fill="#000000">ContributionTable_cldf_id</text>
<polygon fill="none" stroke="#000000" points="480.5,-453.7 480.5,-475.7 707.5,-475.7 707.5,-453.7 480.5,-453.7"/>
<image xlink:href="../../images/foreignKeys.png" width="11px" height="12px" preserveAspectRatio="xMinYMin meet" x="485.5" y="-470.7"/>
<text text-anchor="start" x="500.5" y="-460.8" font-family="Helvetica,sans-Serif" font-size="11.00" fill="#000000">MediaTable_cldf_id</text>
<polygon fill="none" stroke="#000000" points="480.5,-434.7 480.5,-453.7 707.5,-453.7 707.5,-434.7 480.5,-434.7"/>
<text text-anchor="start" x="483.5" y="-440.8" font-family="Helvetica,sans-Serif" font-size="11.00" fill="#000000">...</text>
<polygon fill="#ffffff" stroke="transparent" points="480.5,-415.7 480.5,-434.7 565.5,-434.7 565.5,-415.7 480.5,-415.7"/>
<polygon fill="none" stroke="#000000" points="480.5,-415.7 480.5,-434.7 565.5,-434.7 565.5,-415.7 480.5,-415.7"/>
<text text-anchor="start" x="483.5" y="-421.8" font-family="Helvetica,sans-Serif" font-size="11.00" fill="#000000">&lt; 2</text>
<polygon fill="#ffffff" stroke="transparent" points="565.5,-415.7 565.5,-434.7 662.5,-434.7 662.5,-415.7 565.5,-415.7"/>
<polygon fill="none" stroke="#000000" points="565.5,-415.7 565.5,-434.7 662.5,-434.7 662.5,-415.7 565.5,-415.7"/>
<text text-anchor="start" x="599.594" y="-421.8" font-family="Helvetica,sans-Serif" font-size="11.00" fill="#000000">10,396 rows</text>
<polygon fill="#ffffff" stroke="transparent" points="662.5,-415.7 662.5,-434.7 707.5,-434.7 707.5,-415.7 662.5,-415.7"/>
<polygon fill="none" stroke="#000000" points="662.5,-415.7 662.5,-434.7 707.5,-434.7 707.5,-415.7 662.5,-415.7"/>
<text text-anchor="start" x="698.3862" y="-421.8" font-family="Helvetica,sans-Serif" font-size="11.00" fill="#000000"> &#160;</text>
</a>
</g>
</g>
<!-- ContributionTable_MediaTable&#45;&gt;ContributionTable -->
<g id="edge6" class="edge">
<title>ContributionTable_MediaTable:w&#45;&gt;ContributionTable:e</title>
<path fill="none" stroke="#000000" d="M466.1137,-484.8243C447.221,-479.5041 439.8641,-464.7 414.5,-464.7"/>
<polygon fill="#000000" stroke="#000000" points="472.5671,-485.6657 480.0345,-490.2698 476.5336,-486.1828 480.5,-486.7 480.5,-486.7 480.5,-486.7 476.5336,-486.1828 480.9655,-483.1302 472.5671,-485.6657 472.5671,-485.6657"/>
<ellipse fill="none" stroke="#000000" cx="469.394" cy="-485.2519" rx="3.2" ry="3.2"/>
</g>
<!-- MediaTable -->
<g id="node10" class="node">
<title>MediaTable</title>
<g id="a_node10"><a xlink:href="../../tables/MediaTable.html" xlink:title="MediaTable" target="_top">
<polygon fill="#ffffff" stroke="transparent" points="244,-290.2 244,-373.2 381,-373.2 381,-290.2 244,-290.2"/>
<polygon fill="#f5f5f5" stroke="transparent" points="244.5,-349.7 244.5,-372.7 381.5,-372.7 381.5,-349.7 244.5,-349.7"/>
<polygon fill="none" stroke="#000000" points="244.5,-349.7 244.5,-372.7 381.5,-372.7 381.5,-349.7 244.5,-349.7"/>
<text text-anchor="start" x="249.5" y="-358.8" font-family="Helvetica,sans-Serif" font-weight="bold" font-size="11.00" fill="#000000">MediaTable</text>
<text text-anchor="start" x="346.5437" y="-357.8" font-family="Helvetica,sans-Serif" font-size="11.00" fill="#000000">[table]</text>
<polygon fill="none" stroke="#000000" points="244.5,-327.7 244.5,-349.7 381.5,-349.7 381.5,-327.7 244.5,-327.7"/>
<image xlink:href="../../images/primaryKeys.png" width="11px" height="12px" preserveAspectRatio="xMinYMin meet" x="249.5" y="-344.7"/>
<text text-anchor="start" x="264.5" y="-334.8" font-family="Helvetica,sans-Serif" font-size="11.00" fill="#000000">cldf_id</text>
<polygon fill="none" stroke="#000000" points="244.5,-308.7 244.5,-327.7 381.5,-327.7 381.5,-308.7 244.5,-308.7"/>
<text text-anchor="start" x="247.5" y="-314.8" font-family="Helvetica,sans-Serif" font-size="11.00" fill="#000000">...</text>
<polygon fill="#ffffff" stroke="transparent" points="244.5,-289.7 244.5,-308.7 278.5,-308.7 278.5,-289.7 244.5,-289.7"/>
<polygon fill="none" stroke="#000000" points="244.5,-289.7 244.5,-308.7 278.5,-308.7 278.5,-289.7 244.5,-289.7"/>
<text text-anchor="start" x="247.5" y="-295.8" font-family="Helvetica,sans-Serif" font-size="11.00" fill="#000000"> &#160;</text>
<polygon fill="#ffffff" stroke="transparent" points="278.5,-289.7 278.5,-308.7 348.5,-308.7 348.5,-289.7 278.5,-289.7"/>
<polygon fill="none" stroke="#000000" points="278.5,-289.7 278.5,-308.7 348.5,-308.7 348.5,-289.7 278.5,-289.7"/>
<text text-anchor="start" x="291.7089" y="-295.8" font-family="Helvetica,sans-Serif" font-size="11.00" fill="#000000">7,986 rows</text>
<polygon fill="#ffffff" stroke="transparent" points="348.5,-289.7 348.5,-308.7 381.5,-308.7 381.5,-289.7 348.5,-289.7"/>
<polygon fill="none" stroke="#000000" points="348.5,-289.7 348.5,-308.7 381.5,-308.7 381.5,-289.7 348.5,-289.7"/>
<text text-anchor="start" x="362.9053" y="-295.8" font-family="Helvetica,sans-Serif" font-size="11.00" fill="#000000">2 &gt;</text>
</a>
</g>
</g>
<!-- ContributionTable_MediaTable&#45;&gt;MediaTable -->
<g id="edge7" class="edge">
<title>ContributionTable_MediaTable:w&#45;&gt;MediaTable:e</title>
<path fill="none" stroke="#000000" d="M466.0642,-462.003C442.8956,-451.3802 454.1004,-411.6455 431,-383.7 412.0568,-360.7837 411.2321,-338.7 381.5,-338.7"/>
<polygon fill="#000000" stroke="#000000" points="472.6361,-463.2308 479.8388,-468.2388 476.568,-463.9654 480.5,-464.7 480.5,-464.7 480.5,-464.7 476.568,-463.9654 481.1612,-461.1612 472.6361,-463.2308 472.6361,-463.2308"/>
<ellipse fill="none" stroke="#000000" cx="469.4905" cy="-462.6431" rx="3.2" ry="3.2"/>
</g>
<!-- ExampleTable&#45;&gt;LanguageTable -->
<g id="edge8" class="edge">
<title>ExampleTable:w&#45;&gt;LanguageTable:e</title>
<path fill="none" stroke="#000000" d="M188.5028,-586.13C168.0234,-568.4747 190.9734,-505.7 153.5,-505.7"/>
<polygon fill="#000000" stroke="#000000" points="194.8951,-588.217 201.3827,-594.1222 198.6975,-589.4585 202.5,-590.7 202.5,-590.7 202.5,-590.7 198.6975,-589.4585 203.6173,-587.2778 194.8951,-588.217 194.8951,-588.217"/>
<ellipse fill="none" stroke="#000000" cx="191.8531" cy="-587.2238" rx="3.2" ry="3.2"/>
</g>
<!-- ExampleTable&#45;&gt;LanguageTable -->
<g id="edge9" class="edge">
<title>ExampleTable:w&#45;&gt;LanguageTable:e</title>
<path fill="none" stroke="#000000" d="M188.7151,-563.7565C172.8751,-548.9048 182.8754,-505.7 153.5,-505.7"/>
<polygon fill="#000000" stroke="#000000" points="194.9696,-565.9994 201.2847,-572.0887 198.7348,-567.3497 202.5,-568.7 202.5,-568.7 202.5,-568.7 198.7348,-567.3497 203.7153,-565.3113 194.9696,-565.9994 194.9696,-565.9994"/>
<ellipse fill="none" stroke="#000000" cx="191.9574" cy="-564.9192" rx="3.2" ry="3.2"/>
</g>
<!-- FormTable&#45;&gt;LanguageTable -->
<g id="edge10" class="edge">
<title>FormTable:w&#45;&gt;LanguageTable:e</title>
<path fill="none" stroke="#000000" d="M203.9648,-218.0357C161.0796,-257.7469 214.8094,-505.7 153.5,-505.7"/>
<polygon fill="#000000" stroke="#000000" points="210.0574,-215.634 218.8203,-216.0492 213.7787,-214.167 217.5,-212.7 217.5,-212.7 217.5,-212.7 213.7787,-214.167 216.1797,-209.3508 210.0574,-215.634 210.0574,-215.634"/>
<ellipse fill="none" stroke="#000000" cx="207.0804" cy="-216.8075" rx="3.2" ry="3.2"/>
</g>
<!-- ParameterTable -->
<g id="node11" class="node">
<title>ParameterTable</title>
<g id="a_node11"><a xlink:href="../../tables/ParameterTable.html" xlink:title="ParameterTable" target="_top">
<polygon fill="#ffffff" stroke="transparent" points="14,-142.2 14,-225.2 147,-225.2 147,-142.2 14,-142.2"/>
<polygon fill="#f5f5f5" stroke="transparent" points="14.5,-201.7 14.5,-224.7 147.5,-224.7 147.5,-201.7 14.5,-201.7"/>
<polygon fill="none" stroke="#000000" points="14.5,-201.7 14.5,-224.7 147.5,-224.7 147.5,-201.7 14.5,-201.7"/>
<text text-anchor="start" x="19.5" y="-210.8" font-family="Helvetica,sans-Serif" font-weight="bold" font-size="11.00" fill="#000000">ParameterTable</text>
<text text-anchor="start" x="112.5437" y="-209.8" font-family="Helvetica,sans-Serif" font-size="11.00" fill="#000000">[table]</text>
<polygon fill="none" stroke="#000000" points="14.5,-179.7 14.5,-201.7 147.5,-201.7 147.5,-179.7 14.5,-179.7"/>
<image xlink:href="../../images/primaryKeys.png" width="11px" height="12px" preserveAspectRatio="xMinYMin meet" x="19.5" y="-196.7"/>
<text text-anchor="start" x="34.5" y="-186.8" font-family="Helvetica,sans-Serif" font-size="11.00" fill="#000000">cldf_id</text>
<polygon fill="none" stroke="#000000" points="14.5,-160.7 14.5,-179.7 147.5,-179.7 147.5,-160.7 14.5,-160.7"/>
<text text-anchor="start" x="17.5" y="-166.8" font-family="Helvetica,sans-Serif" font-size="11.00" fill="#000000">...</text>
<polygon fill="#ffffff" stroke="transparent" points="14.5,-141.7 14.5,-160.7 43.5,-160.7 43.5,-141.7 14.5,-141.7"/>
<polygon fill="none" stroke="#000000" points="14.5,-141.7 14.5,-160.7 43.5,-160.7 43.5,-141.7 14.5,-141.7"/>
<text text-anchor="start" x="17.5" y="-147.8" font-family="Helvetica,sans-Serif" font-size="11.00" fill="#000000"> &#160;</text>
<polygon fill="#ffffff" stroke="transparent" points="43.5,-141.7 43.5,-160.7 117.5,-160.7 117.5,-141.7 43.5,-141.7"/>
<polygon fill="none" stroke="#000000" points="43.5,-141.7 43.5,-160.7 117.5,-160.7 117.5,-141.7 43.5,-141.7"/>
<text text-anchor="start" x="54.594" y="-147.8" font-family="Helvetica,sans-Serif" font-size="11.00" fill="#000000">21,517 rows</text>
<polygon fill="#ffffff" stroke="transparent" points="117.5,-141.7 117.5,-160.7 147.5,-160.7 147.5,-141.7 117.5,-141.7"/>
<polygon fill="none" stroke="#000000" points="117.5,-141.7 117.5,-160.7 147.5,-160.7 147.5,-141.7 117.5,-141.7"/>
<text text-anchor="start" x="128.9053" y="-147.8" font-family="Helvetica,sans-Serif" font-size="11.00" fill="#000000">1 &gt;</text>
</a>
</g>
</g>
<!-- FormTable&#45;&gt;ParameterTable -->
<g id="edge11" class="edge">
<title>FormTable:w&#45;&gt;ParameterTable:e</title>
<path fill="none" stroke="#000000" d="M203.0032,-190.7C182.9335,-190.7 173.1424,-190.7 147.5,-190.7"/>
<polygon fill="#000000" stroke="#000000" points="209.5,-190.7001 217.5,-194.3 213.5,-190.7 217.5,-190.7 217.5,-190.7 217.5,-190.7 213.5,-190.7 217.5,-187.1 209.5,-190.7001 209.5,-190.7001"/>
<ellipse fill="none" stroke="#000000" cx="206.3" cy="-190.7001" rx="3.2" ry="3.2"/>
</g>
<!-- FormTable_MediaTable -->
<g id="node7" class="node">
<title>FormTable_MediaTable</title>
<g id="a_node7"><a xlink:href="../../tables/FormTable_MediaTable.html" xlink:title="FormTable_MediaTable" target="_top">
<polygon fill="#ffffff" stroke="transparent" points="505.5,-164.2 505.5,-269.2 681.5,-269.2 681.5,-164.2 505.5,-164.2"/>
<polygon fill="#f5f5f5" stroke="transparent" points="505.5,-245.7 505.5,-268.7 681.5,-268.7 681.5,-245.7 505.5,-245.7"/>
<polygon fill="none" stroke="#000000" points="505.5,-245.7 505.5,-268.7 681.5,-268.7 681.5,-245.7 505.5,-245.7"/>
<text text-anchor="start" x="510.5" y="-254.8" font-family="Helvetica,sans-Serif" font-weight="bold" font-size="11.00" fill="#000000">FormTable_MediaTable</text>
<text text-anchor="start" x="646.5437" y="-253.8" font-family="Helvetica,sans-Serif" font-size="11.00" fill="#000000">[table]</text>
<polygon fill="none" stroke="#000000" points="505.5,-223.7 505.5,-245.7 681.5,-245.7 681.5,-223.7 505.5,-223.7"/>
<image xlink:href="../../images/foreignKeys.png" width="11px" height="12px" preserveAspectRatio="xMinYMin meet" x="510.5" y="-240.7"/>
<text text-anchor="start" x="525.5" y="-230.8" font-family="Helvetica,sans-Serif" font-size="11.00" fill="#000000">FormTable_cldf_id</text>
<polygon fill="none" stroke="#000000" points="505.5,-201.7 505.5,-223.7 681.5,-223.7 681.5,-201.7 505.5,-201.7"/>
<image xlink:href="../../images/foreignKeys.png" width="11px" height="12px" preserveAspectRatio="xMinYMin meet" x="510.5" y="-218.7"/>
<text text-anchor="start" x="525.5" y="-208.8" font-family="Helvetica,sans-Serif" font-size="11.00" fill="#000000">MediaTable_cldf_id</text>
<polygon fill="none" stroke="#000000" points="505.5,-182.7 505.5,-201.7 681.5,-201.7 681.5,-182.7 505.5,-182.7"/>
<text text-anchor="start" x="508.5" y="-188.8" font-family="Helvetica,sans-Serif" font-size="11.00" fill="#000000">...</text>
<polygon fill="#ffffff" stroke="transparent" points="505.5,-163.7 505.5,-182.7 561.5,-182.7 561.5,-163.7 505.5,-163.7"/>
<polygon fill="none" stroke="#000000" points="505.5,-163.7 505.5,-182.7 561.5,-182.7 561.5,-163.7 505.5,-163.7"/>
<text text-anchor="start" x="508.5" y="-169.8" font-family="Helvetica,sans-Serif" font-size="11.00" fill="#000000">&lt; 2</text>
<polygon fill="#ffffff" stroke="transparent" points="561.5,-163.7 561.5,-182.7 651.5,-182.7 651.5,-163.7 561.5,-163.7"/>
<polygon fill="none" stroke="#000000" points="561.5,-163.7 561.5,-182.7 651.5,-182.7 651.5,-163.7 561.5,-163.7"/>
<text text-anchor="start" x="582.4791" y="-169.8" font-family="Helvetica,sans-Serif" font-size="11.00" fill="#000000">187,051 rows</text>
<polygon fill="#ffffff" stroke="transparent" points="651.5,-163.7 651.5,-182.7 681.5,-182.7 681.5,-163.7 651.5,-163.7"/>
<polygon fill="none" stroke="#000000" points="651.5,-163.7 651.5,-182.7 681.5,-182.7 681.5,-163.7 651.5,-163.7"/>
<text text-anchor="start" x="672.3862" y="-169.8" font-family="Helvetica,sans-Serif" font-size="11.00" fill="#000000"> &#160;</text>
</a>
</g>
</g>
<!-- FormTable_MediaTable&#45;&gt;FormTable -->
<g id="edge12" class="edge">
<title>FormTable_MediaTable:w&#45;&gt;FormTable:e</title>
<path fill="none" stroke="#000000" d="M490.7227,-234.7C459.1892,-234.7 446.2222,-234.7 408.5,-234.7"/>
<polygon fill="#000000" stroke="#000000" points="497.5,-234.7001 505.5,-238.3 501.5,-234.7 505.5,-234.7 505.5,-234.7 505.5,-234.7 501.5,-234.7 505.5,-231.1 497.5,-234.7001 497.5,-234.7001"/>
<ellipse fill="none" stroke="#000000" cx="494.3" cy="-234.7001" rx="3.2" ry="3.2"/>
</g>
<!-- FormTable_MediaTable&#45;&gt;MediaTable -->
<g id="edge13" class="edge">
<title>FormTable_MediaTable:w&#45;&gt;MediaTable:e</title>
<path fill="none" stroke="#000000" d="M490.8817,-214.3859C430.9389,-229.3378 454.6989,-338.7 381.5,-338.7"/>
<polygon fill="#000000" stroke="#000000" points="497.5527,-213.6166 505.9125,-216.2763 501.5263,-213.1583 505.5,-212.7 505.5,-212.7 505.5,-212.7 501.5263,-213.1583 505.0875,-209.1237 497.5527,-213.6166 497.5527,-213.6166"/>
<ellipse fill="none" stroke="#000000" cx="494.3737" cy="-213.9832" rx="3.2" ry="3.2"/>
</g>
<!-- FormTable_SourceTable -->
<g id="node8" class="node">
<title>FormTable_SourceTable</title>
<g id="a_node8"><a xlink:href="../../tables/FormTable_SourceTable.html" xlink:title="FormTable_SourceTable" target="_top">
<polygon fill="#ffffff" stroke="transparent" points="502.5,-38.2 502.5,-143.2 684.5,-143.2 684.5,-38.2 502.5,-38.2"/>
<polygon fill="#f5f5f5" stroke="transparent" points="502.5,-119.7 502.5,-142.7 684.5,-142.7 684.5,-119.7 502.5,-119.7"/>
<polygon fill="none" stroke="#000000" points="502.5,-119.7 502.5,-142.7 684.5,-142.7 684.5,-119.7 502.5,-119.7"/>
<text text-anchor="start" x="507.5" y="-128.8" font-family="Helvetica,sans-Serif" font-weight="bold" font-size="11.00" fill="#000000">FormTable_SourceTable</text>
<text text-anchor="start" x="649.5437" y="-127.8" font-family="Helvetica,sans-Serif" font-size="11.00" fill="#000000">[table]</text>
<polygon fill="none" stroke="#000000" points="502.5,-97.7 502.5,-119.7 684.5,-119.7 684.5,-97.7 502.5,-97.7"/>
<image xlink:href="../../images/foreignKeys.png" width="11px" height="12px" preserveAspectRatio="xMinYMin meet" x="507.5" y="-114.7"/>
<text text-anchor="start" x="522.5" y="-104.8" font-family="Helvetica,sans-Serif" font-size="11.00" fill="#000000">FormTable_cldf_id</text>
<polygon fill="none" stroke="#000000" points="502.5,-75.7 502.5,-97.7 684.5,-97.7 684.5,-75.7 502.5,-75.7"/>
<image xlink:href="../../images/foreignKeys.png" width="11px" height="12px" preserveAspectRatio="xMinYMin meet" x="507.5" y="-92.7"/>
<text text-anchor="start" x="522.5" y="-82.8" font-family="Helvetica,sans-Serif" font-size="11.00" fill="#000000">SourceTable_id</text>
<polygon fill="none" stroke="#000000" points="502.5,-56.7 502.5,-75.7 684.5,-75.7 684.5,-56.7 502.5,-56.7"/>
<text text-anchor="start" x="505.5" y="-62.8" font-family="Helvetica,sans-Serif" font-size="11.00" fill="#000000">...</text>
<polygon fill="#ffffff" stroke="transparent" points="502.5,-37.7 502.5,-56.7 578.5,-56.7 578.5,-37.7 502.5,-37.7"/>
<polygon fill="none" stroke="#000000" points="502.5,-37.7 502.5,-56.7 578.5,-56.7 578.5,-37.7 502.5,-37.7"/>
<text text-anchor="start" x="505.5" y="-43.8" font-family="Helvetica,sans-Serif" font-size="11.00" fill="#000000">&lt; 2</text>
<polygon fill="#ffffff" stroke="transparent" points="578.5,-37.7 578.5,-56.7 644.5,-56.7 644.5,-37.7 578.5,-37.7"/>
<polygon fill="none" stroke="#000000" points="578.5,-37.7 578.5,-56.7 644.5,-56.7 644.5,-37.7 578.5,-37.7"/>
<text text-anchor="start" x="609.1105" y="-43.8" font-family="Helvetica,sans-Serif" font-size="11.00" fill="#000000">0 rows</text>
<polygon fill="#ffffff" stroke="transparent" points="644.5,-37.7 644.5,-56.7 684.5,-56.7 684.5,-37.7 644.5,-37.7"/>
<polygon fill="none" stroke="#000000" points="644.5,-37.7 644.5,-56.7 684.5,-56.7 684.5,-37.7 644.5,-37.7"/>
<text text-anchor="start" x="675.3862" y="-43.8" font-family="Helvetica,sans-Serif" font-size="11.00" fill="#000000"> &#160;</text>
</a>
</g>
</g>
<!-- FormTable_SourceTable&#45;&gt;FormTable -->
<g id="edge14" class="edge">
<title>FormTable_SourceTable:w&#45;&gt;FormTable:e</title>
<path fill="none" stroke="#000000" d="M488.1314,-110.887C439.0734,-127.6185 472.9085,-234.7 408.5,-234.7"/>
<polygon fill="#000000" stroke="#000000" points="494.5911,-109.9038 503.0417,-112.259 498.5455,-109.3019 502.5,-108.7 502.5,-108.7 502.5,-108.7 498.5455,-109.3019 501.9583,-105.141 494.5911,-109.9038 494.5911,-109.9038"/>
<ellipse fill="none" stroke="#000000" cx="491.4275" cy="-110.3853" rx="3.2" ry="3.2"/>
</g>
<!-- SourceTable -->
<g id="node12" class="node">
<title>SourceTable</title>
<g id="a_node12"><a xlink:href="../../tables/SourceTable.html" xlink:title="SourceTable" target="_top">
<polygon fill="#ffffff" stroke="transparent" points="255,-38.2 255,-121.2 370,-121.2 370,-38.2 255,-38.2"/>
<polygon fill="#f5f5f5" stroke="transparent" points="255.5,-97.7 255.5,-120.7 370.5,-120.7 370.5,-97.7 255.5,-97.7"/>
<polygon fill="none" stroke="#000000" points="255.5,-97.7 255.5,-120.7 370.5,-120.7 370.5,-97.7 255.5,-97.7"/>
<text text-anchor="start" x="260.5" y="-106.8" font-family="Helvetica,sans-Serif" font-weight="bold" font-size="11.00" fill="#000000">SourceTable</text>
<text text-anchor="start" x="335.5437" y="-105.8" font-family="Helvetica,sans-Serif" font-size="11.00" fill="#000000">[table]</text>
<polygon fill="none" stroke="#000000" points="255.5,-75.7 255.5,-97.7 370.5,-97.7 370.5,-75.7 255.5,-75.7"/>
<image xlink:href="../../images/primaryKeys.png" width="11px" height="12px" preserveAspectRatio="xMinYMin meet" x="260.5" y="-92.7"/>
<text text-anchor="start" x="275.5" y="-82.8" font-family="Helvetica,sans-Serif" font-size="11.00" fill="#000000">id</text>
<polygon fill="none" stroke="#000000" points="255.5,-56.7 255.5,-75.7 370.5,-75.7 370.5,-56.7 255.5,-56.7"/>
<text text-anchor="start" x="258.5" y="-62.8" font-family="Helvetica,sans-Serif" font-size="11.00" fill="#000000">...</text>
<polygon fill="#ffffff" stroke="transparent" points="255.5,-37.7 255.5,-56.7 289.5,-56.7 289.5,-37.7 255.5,-37.7"/>
<polygon fill="none" stroke="#000000" points="255.5,-37.7 255.5,-56.7 289.5,-56.7 289.5,-37.7 255.5,-37.7"/>
<text text-anchor="start" x="258.5" y="-43.8" font-family="Helvetica,sans-Serif" font-size="11.00" fill="#000000"> &#160;</text>
<polygon fill="#ffffff" stroke="transparent" points="289.5,-37.7 289.5,-56.7 338.5,-56.7 338.5,-37.7 289.5,-37.7"/>
<polygon fill="none" stroke="#000000" points="289.5,-37.7 289.5,-56.7 338.5,-56.7 338.5,-37.7 289.5,-37.7"/>
<text text-anchor="start" x="303.1105" y="-43.8" font-family="Helvetica,sans-Serif" font-size="11.00" fill="#000000">0 rows</text>
<polygon fill="#ffffff" stroke="transparent" points="338.5,-37.7 338.5,-56.7 370.5,-56.7 370.5,-37.7 338.5,-37.7"/>
<polygon fill="none" stroke="#000000" points="338.5,-37.7 338.5,-56.7 370.5,-56.7 370.5,-37.7 338.5,-37.7"/>
<text text-anchor="start" x="351.9053" y="-43.8" font-family="Helvetica,sans-Serif" font-size="11.00" fill="#000000">1 &gt;</text>
</a>
</g>
</g>
<!-- FormTable_SourceTable&#45;&gt;SourceTable -->
<g id="edge15" class="edge">
<title>FormTable_SourceTable:w&#45;&gt;SourceTable:e</title>
<path fill="none" stroke="#000000" d="M487.9912,-86.7C440.9153,-86.7 424.0104,-86.7 370.5,-86.7"/>
<polygon fill="#000000" stroke="#000000" points="494.5,-86.7001 502.5,-90.3 498.5,-86.7 502.5,-86.7 502.5,-86.7 502.5,-86.7 498.5,-86.7 502.5,-83.1 494.5,-86.7001 494.5,-86.7001"/>
<ellipse fill="none" stroke="#000000" cx="491.3" cy="-86.7001" rx="3.2" ry="3.2"/>
</g>
</g>
</svg>

